<?xml version="1.0" encoding="UTF-8"?>
<!DOCTYPE svg PUBLIC "-//W3C//DTD SVG 1.1//EN" "http://www.w3.org/Graphics/SVG/1.1/DTD/svg11.dtd">
<!-- Creator: CorelDRAW 2020 (64-Bit) -->
<svg xmlns="http://www.w3.org/2000/svg" xml:space="preserve" width="22.0132mm" height="22.0132mm" version="1.1" style="shape-rendering:geometricPrecision; text-rendering:geometricPrecision; image-rendering:optimizeQuality; fill-rule:evenodd; clip-rule:evenodd"
viewBox="0 0 2201.32 2201.32"
 xmlns:xlink="http://www.w3.org/1999/xlink"
 xmlns:xodm="http://www.corel.com/coreldraw/odm/2003">
 <defs>
  <style type="text/css">
   <![CDATA[
    .fil0 {fill:#B9151E}
   ]]>
  </style>
 </defs>
 <g id="Слой_x0020_1">
  <metadata id="CorelCorpID_0Corel-Layer"/>
  <path class="fil0" d="M1066.9 1973.79c172.87,106.42 179.73,-32.04 193.56,-58.08 46.77,114.64 -153.44,185.33 -214.89,39.62 -6.55,-15.54 -13.29,-45.09 -8.26,-59.9 19.92,-58.54 47.31,-32.13 47.35,-32.15 -14.01,47.86 -23.62,55.99 -17.76,110.51zm533.82 -342.48c-52.03,58.99 -74.07,21.87 -125.41,106.3l47.19 101.88c-116.83,-13.65 -50.48,-147 -0.81,-207.31l79.03 -0.87zm-947.98 -990.69c-12,-11.99 -21.37,-21.96 -33.08,-34.57l-19.44 -21.71c-0.9,-4.18 -4.04,-4.85 -6.06,-7.25 66.36,16.67 107.28,92.22 67.33,161.35 -39.53,68.43 -146.8,60.82 -180.85,18.46l88.86 20.79c95.66,-91.34 79.14,-58.13 83.24,-137.07zm216.2 -134.71c156.41,79.69 131.84,5.41 183.49,-90.28 31.03,44.91 11.89,80.82 -26.07,120.52 -74.4,77.81 -238.97,12.7 -177.44,-105.27l20.02 75.03zm741.65 601.1l39.77 -20.89 23.45 29.88c59.98,169.62 407.14,80.65 337.64,-157.49 -27.22,-93.26 -111.78,-147.72 -210.87,-136.31 -128.8,14.84 -135.05,107.27 -176.75,187.4 -62.76,19.28 -230.63,68.7 -287.04,59.25 -16.23,-63.68 4.53,-56.92 50.73,-102.32 32.94,-32.38 55.9,-59.78 92.85,-91.07 264.1,26.36 216.03,-180.96 168.75,-230.32 -99.02,-103.36 -267.21,-30.44 -232.2,167.72l-124.1 125.34c-14.03,-109.18 57.05,-425.78 71.52,-557.27 59.63,-38.08 114.07,-52.6 119.74,-137.9 4.86,-73 -41.34,-138.28 -115.17,-148.85 -69.15,-9.92 -131.77,21.27 -154.27,87.33 -34.95,102.61 19.81,118.9 64.98,185.91l-84 560.51 -98.15 -8.74 -71.3 -287.28c63.55,-73.1 135.6,-97.53 104.06,-231.61 -50.49,-214.63 -390.65,-181.11 -375,65.06 7.44,117.23 90.45,150.15 185.53,180.47 20.45,69.17 68.92,234.78 66.04,299.74 -79.89,42.22 -156.86,-50.87 -275.68,-161.27 9,-107.8 47.12,-164.53 -51.78,-251.83 -73.5,-64.9 -190,-59.35 -258.58,8.83 -136.27,135.47 -23.69,398.9 243.04,301.26l226.45 189.73 -38.26 118.92 -286.89 29.14c-66.46,-79.89 -91.18,-159.35 -233.73,-133.94 -218.84,39.03 -194.25,383.76 41.09,378.42 151.58,-3.44 141.6,-98.92 201.81,-159.05l283.08 -27.49 52 109.03 -442.78 443.57c-76.7,-6.32 -126.44,-24.34 -179.45,44.3 -101.94,132.06 73.85,290.91 196.58,196.34 70.87,-54.63 52.51,-104.64 46.58,-179.02l447.61 -450.75 100.02 31.06 27.75 295.25c-84.63,62.88 -156.88,95.2 -133.29,231.54 37.43,216.29 381.61,192.47 379.53,-37.88 -1.29,-141.85 -82.72,-143.28 -164.73,-204.49 -4.91,-119.2 -73.7,-479.22 124.54,-222.77 38.11,49.31 77.02,81.63 111.48,135.04 -116.05,244.25 123.77,390.22 273.47,269.63 158.16,-127.39 63.64,-380.11 -200.89,-327.7 -47.42,-40.94 -174.95,-183.83 -195.16,-233.94l22.97 -32.47 159.71 42.98c29.6,88.37 45.09,157.93 164.68,144.55 94.53,-10.59 140.8,-106.66 109.47,-193.02 -28.65,-79 -126.77,-106.48 -199.82,-65.37 -54.65,30.74 -30.65,38.08 -98.55,17.62 -88.67,-26.71 -106.06,-27.86 -99.68,-79.36 45.33,-31.89 190.95,-61.26 251.2,-65.42z"/>
 </g>
</svg>
