<?xml version="1.0" encoding="UTF-8"?>
<!DOCTYPE svg PUBLIC "-//W3C//DTD SVG 1.1//EN" "http://www.w3.org/Graphics/SVG/1.1/DTD/svg11.dtd">
<!-- Creator: CorelDRAW 2020 (64-Bit) -->
<svg xmlns="http://www.w3.org/2000/svg" xml:space="preserve" width="21.1666mm" height="12.6998mm" version="1.1" style="shape-rendering:geometricPrecision; text-rendering:geometricPrecision; image-rendering:optimizeQuality; fill-rule:evenodd; clip-rule:evenodd"
viewBox="0 0 2116.66 1269.98"
 xmlns:xlink="http://www.w3.org/1999/xlink"
 xmlns:xodm="http://www.corel.com/coreldraw/odm/2003">
 <defs>
  <style type="text/css">
   <![CDATA[
    .fil0 {fill:#B9151E;fill-rule:nonzero}
   ]]>
  </style>
 </defs>
 <g id="Слой_x0020_1">
  <metadata id="CorelCorpID_0Corel-Layer"/>
  <path class="fil0" d="M379.09 938.88l0 4.92c-5.58,0.33 -9.76,1.32 -12.55,2.96 -2.79,1.64 -4.64,4.31 -5.54,8 -0.9,3.69 -1.36,8.9 -1.36,15.63l0 143.78c-1.31,0 -2.62,0 -3.94,0 -1.31,0 -2.7,0 -4.18,0l-104.39 -151.65 0 118.17c0,6.9 0.49,12.27 1.48,16.13 0.98,3.85 3.12,6.6 6.4,8.25 3.28,1.64 8.29,2.7 15.02,3.2l0 4.92c-3.12,-0.33 -7.1,-0.53 -11.94,-0.62 -4.85,-0.08 -9.4,-0.12 -13.67,-0.12 -4.1,0 -8.2,0.04 -12.31,0.12 -4.1,0.09 -7.47,0.29 -10.09,0.62l0 -4.92c5.41,-0.5 9.52,-1.52 12.31,-3.08 2.79,-1.56 4.68,-4.23 5.66,-8 0.99,-3.78 1.48,-8.95 1.48,-15.51l0 -116.7c0,-6.08 -0.49,-10.55 -1.48,-13.42 -0.98,-2.87 -2.87,-4.84 -5.66,-5.91 -2.79,-1.07 -6.9,-1.68 -12.31,-1.85l0 -4.92c2.62,0.16 5.99,0.33 10.09,0.49 4.11,0.17 8.21,0.25 12.31,0.25 3.61,0 7.14,-0.08 10.59,-0.25 3.45,-0.16 6.48,-0.33 9.11,-0.49l89.86 128.52 0 -96.02c0,-7.06 -0.53,-12.48 -1.6,-16.25 -1.07,-3.78 -3.24,-6.52 -6.52,-8.25 -3.29,-1.72 -8.21,-2.75 -14.78,-3.08l0 -4.92c2.96,0.16 6.9,0.33 11.82,0.49 4.93,0.17 9.52,0.25 13.79,0.25 4.1,0 8.21,-0.08 12.31,-0.25 4.1,-0.16 7.47,-0.33 10.09,-0.49zm204.06 0c-0.66,6.24 -1.11,12.27 -1.35,18.1 -0.25,5.82 -0.37,10.3 -0.37,13.41 0,3.12 0.08,6.08 0.24,8.87 0.17,2.79 0.33,5.09 0.5,6.89l-5.67 0c-1.15,-10.5 -2.91,-18.79 -5.29,-24.87 -2.38,-6.07 -5.91,-10.38 -10.59,-12.92 -4.68,-2.54 -11.2,-3.82 -19.57,-3.82l-16.99 0c-5.25,0 -9.23,0.45 -11.94,1.36 -2.71,0.9 -4.55,2.71 -5.54,5.41 -0.98,2.71 -1.48,6.94 -1.48,12.68l0 124.09c0,5.58 0.5,9.76 1.48,12.55 0.99,2.79 2.83,4.64 5.54,5.54 2.71,0.91 6.69,1.36 11.94,1.36l16.01 0c9.35,0 16.78,-1.48 22.28,-4.43 5.49,-2.96 9.68,-7.8 12.55,-14.53 2.87,-6.73 5.05,-15.92 6.53,-27.57l5.66 0c-0.49,4.76 -0.74,10.99 -0.74,18.71 0,3.28 0.12,8.04 0.37,14.28 0.25,6.23 0.7,12.63 1.35,19.2 -8.37,-0.33 -17.8,-0.53 -28.31,-0.62 -10.5,-0.08 -19.86,-0.12 -28.07,-0.12 -5.08,0 -11.85,0 -20.31,0 -8.45,0 -17.48,0.04 -27.08,0.12 -9.6,0.09 -18.59,0.29 -26.96,0.62l0 -4.92c5.58,-0.33 9.77,-0.99 12.56,-1.97 2.79,-0.99 4.63,-2.96 5.54,-5.91 0.9,-2.96 1.35,-7.39 1.35,-13.3l0 -122.11c0,-6.08 -0.45,-10.55 -1.35,-13.42 -0.91,-2.87 -2.79,-4.84 -5.67,-5.91 -2.87,-1.07 -7.01,-1.68 -12.43,-1.85l0 -4.92c8.37,0.16 17.36,0.33 26.96,0.49 9.6,0.17 18.63,0.25 27.08,0.25 8.46,0 15.23,0 20.31,0 7.55,0 16.13,-0.04 25.73,-0.12 9.6,-0.09 18.18,-0.29 25.73,-0.62zm-40.87 84.2c0,0 0,0.82 0,2.46 0,1.64 0,2.46 0,2.46l-44.56 0c0,0 0,-0.82 0,-2.46 0,-1.64 0,-2.46 0,-2.46l44.56 0zm7.14 -32.5c-0.66,9.36 -0.94,16.5 -0.86,21.42 0.08,4.93 0.12,9.44 0.12,13.54 0,4.11 0.08,8.62 0.25,13.54 0.16,4.93 0.57,12.07 1.23,21.42l-5.66 0c-0.82,-5.41 -1.89,-10.62 -3.2,-15.63 -1.32,-5.01 -3.66,-9.07 -7.02,-12.19 -3.37,-3.12 -8.58,-4.68 -15.63,-4.68l0 -4.92c7.05,0 12.18,-1.85 15.38,-5.54 3.2,-3.69 5.42,-8.08 6.65,-13.17 1.23,-5.09 2.26,-9.68 3.08,-13.79l5.66 0zm204.31 -55.15c16.08,0 30.24,3.53 42.47,10.59 12.22,7.06 21.7,17.19 28.43,30.41 6.73,13.21 10.1,29.25 10.1,48.13 0,18.38 -3.45,34.47 -10.34,48.25 -6.9,13.79 -16.5,24.54 -28.81,32.26 -12.31,7.71 -26.34,11.57 -42.1,11.57 -16.25,0 -30.45,-3.53 -42.59,-10.59 -12.15,-7.06 -21.59,-17.23 -28.32,-30.53 -6.73,-13.29 -10.09,-29.3 -10.09,-48.01 0,-18.38 3.49,-34.47 10.46,-48.25 6.98,-13.79 16.54,-24.54 28.69,-32.26 12.14,-7.71 26.18,-11.57 42.1,-11.57zm-0.99 4.44c-10.18,0 -19.04,3.69 -26.59,11.07 -7.55,7.39 -13.38,17.57 -17.48,30.53 -4.1,12.97 -6.15,27.99 -6.15,45.06 0,17.4 2.29,32.54 6.89,45.42 4.6,12.89 10.83,22.82 18.71,29.79 7.88,6.98 16.66,10.47 26.34,10.47 10.18,0 19,-3.7 26.47,-11.08 7.47,-7.39 13.3,-17.61 17.48,-30.66 4.19,-13.04 6.28,-28.02 6.28,-44.93 0,-17.56 -2.34,-32.74 -7.02,-45.54 -4.68,-12.81 -10.91,-22.7 -18.71,-29.67 -7.79,-6.98 -16.53,-10.46 -26.22,-10.46zm219.81 -3.94c8.7,0 15.35,0.98 19.95,2.95 4.59,1.97 8.61,4.1 12.06,6.4 1.97,1.15 3.57,2.01 4.8,2.59 1.23,0.57 2.42,0.86 3.57,0.86 2.63,0 4.43,-3.61 5.42,-10.83l5.66 0c-0.17,2.95 -0.37,6.44 -0.62,10.46 -0.24,4.02 -0.41,9.31 -0.49,15.88 -0.08,6.56 -0.12,15.18 -0.12,25.85l-5.66 0c-0.5,-8.04 -2.26,-15.84 -5.3,-23.39 -3.03,-7.55 -7.47,-13.7 -13.29,-18.46 -5.83,-4.76 -13.26,-7.14 -22.28,-7.14 -8.37,0 -15.31,2.5 -20.81,7.51 -5.5,5 -8.25,11.61 -8.25,19.81 0,7.23 1.81,13.26 5.42,18.1 3.61,4.84 8.58,9.36 14.9,13.54 6.32,4.19 13.5,8.82 21.54,13.91 8.21,5.25 15.59,10.46 22.16,15.64 6.56,5.17 11.73,10.87 15.51,17.11 3.77,6.23 5.66,13.78 5.66,22.65 0,10.67 -2.5,19.49 -7.51,26.46 -5.01,6.98 -11.69,12.19 -20.06,15.64 -8.38,3.44 -17.57,5.17 -27.58,5.17 -9.19,0 -16.49,-0.99 -21.91,-2.96 -5.42,-1.97 -10.01,-4.02 -13.79,-6.15 -3.61,-2.3 -6.4,-3.45 -8.37,-3.45 -2.63,0 -4.43,3.61 -5.42,10.83l-5.66 0c0.33,-3.61 0.54,-7.83 0.62,-12.68 0.08,-4.84 0.16,-11.2 0.24,-19.08 0.09,-7.87 0.13,-17.8 0.13,-29.79l5.66 0c0.66,10.18 2.5,19.7 5.54,28.56 3.04,8.87 7.71,15.96 14.03,21.3 6.32,5.33 14.73,8 25.24,8 8.2,0 15.51,-2.5 21.91,-7.51 6.4,-5 9.6,-12.84 9.6,-23.51 0,-10.01 -3.49,-18.34 -10.46,-24.99 -6.98,-6.65 -16.13,-13.42 -27.45,-20.31 -7.72,-4.93 -14.94,-9.85 -21.67,-14.77 -6.73,-4.93 -12.1,-10.67 -16.13,-17.24 -4.02,-6.56 -6.03,-14.36 -6.03,-23.39 0,-10.01 2.34,-18.22 7.02,-24.62 4.68,-6.4 10.75,-11.16 18.22,-14.28 7.47,-3.11 15.47,-4.67 24,-4.67zm341.44 2.95l0 4.92c-5.58,0.17 -9.77,0.78 -12.56,1.85 -2.79,1.07 -4.64,3.04 -5.54,5.91 -0.9,2.87 -1.35,7.34 -1.35,13.42l0 122.11c0,5.91 0.45,10.34 1.35,13.3 0.9,2.95 2.75,4.92 5.54,5.91 2.79,0.98 6.98,1.64 12.56,1.97l0 4.92c-4.11,-0.33 -9.2,-0.53 -15.27,-0.62 -6.07,-0.08 -12.23,-0.12 -18.46,-0.12 -6.9,0 -13.38,0.04 -19.45,0.12 -6.08,0.09 -10.92,0.29 -14.53,0.62l0 -4.92c5.58,-0.33 9.81,-0.99 12.68,-1.97 2.87,-0.99 4.8,-2.96 5.79,-5.91 0.98,-2.96 1.47,-7.39 1.47,-13.3l0 -134.67 1.23 0.49 -60.56 161.26 -3.94 0 -63.52 -159.53 0 126.05c0,6.9 0.49,12.27 1.48,16.13 0.98,3.85 3.12,6.6 6.4,8.25 3.28,1.64 8.29,2.7 15.02,3.2l0 4.92c-3.12,-0.33 -7.1,-0.53 -11.94,-0.62 -4.85,-0.08 -9.4,-0.12 -13.67,-0.12 -4.1,0 -8.2,0.04 -12.31,0.12 -4.1,0.09 -7.47,0.29 -10.09,0.62l0 -4.92c5.41,-0.5 9.52,-1.52 12.31,-3.08 2.79,-1.56 4.68,-4.23 5.66,-8 0.99,-3.78 1.48,-8.95 1.48,-15.51l0 -116.7c0,-6.08 -0.49,-10.55 -1.48,-13.42 -0.98,-2.87 -2.87,-4.84 -5.66,-5.91 -2.79,-1.07 -6.9,-1.68 -12.31,-1.85l0 -4.92c2.62,0.16 5.99,0.33 10.09,0.49 4.11,0.17 8.21,0.25 12.31,0.25 4.76,0 9.56,-0.08 14.4,-0.25 4.85,-0.16 8.99,-0.33 12.44,-0.49l54.41 139.84 -4.68 3.2 53.43 -142.3c2.13,0 4.35,0 6.64,0 2.3,0 4.6,0 6.9,0 6.23,0 12.39,-0.08 18.46,-0.25 6.07,-0.16 11.16,-0.33 15.27,-0.49zm153.34 -0.98l60.07 154.61c2.3,6.07 4.96,10.18 8,12.31 3.04,2.13 5.87,3.28 8.49,3.45l0 4.92c-3.94,-0.33 -8.57,-0.53 -13.91,-0.62 -5.33,-0.08 -10.71,-0.12 -16.12,-0.12 -6.9,0 -13.3,0.04 -19.21,0.12 -5.9,0.09 -10.66,0.29 -14.28,0.62l0 -4.92c8.38,-0.33 13.67,-1.77 15.88,-4.31 2.22,-2.55 1.69,-8 -1.6,-16.37l-44.31 -119.66 3.94 -4.43 -40.87 106.85c-3.94,9.85 -5.83,17.48 -5.66,22.9 0.16,5.41 2.09,9.23 5.78,11.45 3.69,2.21 8.99,3.4 15.88,3.57l0 4.92c-4.92,-0.33 -9.89,-0.53 -14.89,-0.62 -5.01,-0.08 -9.73,-0.12 -14.16,-0.12 -3.94,0 -7.43,0.04 -10.46,0.12 -3.04,0.09 -5.79,0.29 -8.25,0.62l0 -4.92c3.44,-0.82 6.89,-2.88 10.34,-6.16 3.45,-3.28 6.73,-8.86 9.85,-16.74l57.11 -147.47c1.32,0 2.71,0 4.19,0 1.48,0 2.87,0 4.19,0zm25.85 104.38l0 4.93 -73.37 0 2.46 -4.93 70.91 0zm181.4 -103.4l0 4.92c-5.41,0.17 -9.52,0.78 -12.31,1.85 -2.79,1.07 -4.67,3.04 -5.66,5.91 -0.98,2.87 -1.48,7.34 -1.48,13.42l0 122.11c0,5.91 0.5,10.34 1.48,13.3 0.99,2.95 2.87,4.92 5.66,5.91 2.79,0.98 6.9,1.64 12.31,1.97l0 4.92c-3.93,-0.33 -8.9,-0.53 -14.89,-0.62 -5.99,-0.08 -12.11,-0.12 -18.34,-0.12 -6.9,0 -13.34,0.04 -19.33,0.12 -5.99,0.09 -10.87,0.29 -14.65,0.62l0 -4.92c5.58,-0.33 9.77,-0.99 12.56,-1.97 2.79,-0.99 4.63,-2.96 5.54,-5.91 0.9,-2.96 1.35,-7.39 1.35,-13.3l0 -122.11c0,-6.08 -0.45,-10.55 -1.35,-13.42 -0.91,-2.87 -2.79,-4.84 -5.67,-5.91 -2.87,-1.07 -7.01,-1.68 -12.43,-1.85l0 -4.92c3.78,0.16 8.66,0.33 14.65,0.49 5.99,0.17 12.43,0.25 19.33,0.25 6.23,0 12.35,-0.08 18.34,-0.25 5.99,-0.16 10.96,-0.33 14.89,-0.49zm220.07 0c-0.66,6.89 -1.11,13.58 -1.36,20.07 -0.24,6.48 -0.37,11.44 -0.37,14.89 0,3.78 0.08,7.39 0.25,10.83 0.16,3.45 0.33,6.4 0.49,8.87l-5.66 0c-1.64,-12.31 -3.82,-22 -6.53,-29.05 -2.7,-7.06 -6.6,-12.15 -11.69,-15.27 -5.09,-3.12 -12.39,-4.68 -21.91,-4.68l-10.59 0 0 140.34c0,6.56 0.62,11.49 1.85,14.77 1.23,3.28 3.69,5.46 7.38,6.52 3.7,1.07 9.07,1.77 16.13,2.1l0 4.92c-4.6,-0.33 -10.5,-0.53 -17.73,-0.62 -7.22,-0.08 -14.6,-0.12 -22.15,-0.12 -7.88,0 -15.31,0.04 -22.29,0.12 -6.97,0.09 -12.59,0.29 -16.86,0.62l0 -4.92c7.06,-0.33 12.39,-1.03 16,-2.1 3.61,-1.06 6.08,-3.24 7.39,-6.52 1.31,-3.28 1.97,-8.21 1.97,-14.77l0 -140.34 -10.83 0c-9.2,0 -16.42,1.56 -21.67,4.68 -5.25,3.12 -9.19,8.21 -11.82,15.27 -2.62,7.05 -4.76,16.74 -6.4,29.05l-5.66 0c0.33,-2.47 0.53,-5.42 0.61,-8.87 0.09,-3.44 0.13,-7.05 0.13,-10.83 0,-3.45 -0.13,-8.41 -0.37,-14.89 -0.25,-6.49 -0.7,-13.18 -1.36,-20.07 7.06,0.16 14.78,0.33 23.15,0.49 8.37,0.17 16.82,0.25 25.36,0.25 8.53,0 16.24,0 23.14,0 6.89,0 14.52,0 22.89,0 8.38,0 16.83,-0.08 25.36,-0.25 8.54,-0.16 16.25,-0.33 23.15,-0.49zm-847.53 -171.77c56.39,34.71 58.63,-10.46 63.14,-18.95 15.26,37.4 -50.06,60.46 -70.1,12.92 -2.14,-5.07 -4.34,-14.71 -2.7,-19.54 6.5,-19.09 15.44,-10.48 15.45,-10.48 -4.57,15.61 -7.71,18.26 -5.79,36.05zm174.14 -111.73c-16.97,19.24 -24.16,7.14 -40.91,34.68l15.39 33.23c-38.11,-4.45 -16.46,-47.95 -0.26,-67.63l25.78 -0.28zm-309.25 -323.19c-3.92,-3.91 -6.97,-7.16 -10.79,-11.27l-6.35 -7.09c-0.29,-1.36 -1.31,-1.58 -1.97,-2.36 21.65,5.44 34.99,30.08 21.96,52.64 -12.89,22.32 -47.89,19.84 -59,6.02l28.99 6.78c31.21,-29.8 25.82,-18.96 27.16,-44.72zm70.53 -43.94c51.02,25.99 43.01,1.76 59.86,-29.45 10.12,14.65 3.88,26.36 -8.51,39.31 -24.27,25.39 -77.96,4.15 -57.88,-34.34l6.53 24.48zm241.94 196.09l12.98 -6.81 7.65 9.74c19.56,55.34 132.81,26.31 110.14,-51.37 -8.88,-30.43 -36.46,-48.19 -68.79,-44.47 -42.02,4.84 -44.06,34.99 -57.66,61.13 -20.47,6.29 -75.24,22.42 -93.64,19.33 -5.29,-20.77 1.48,-18.57 16.55,-33.38 10.75,-10.56 18.24,-19.5 30.29,-29.71 86.16,8.6 70.47,-59.03 55.05,-75.13 -32.3,-33.72 -87.17,-9.93 -75.75,54.71l-40.48 40.89c-4.58,-35.62 18.61,-138.9 23.33,-181.79 19.45,-12.43 37.21,-17.16 39.06,-44.99 1.59,-23.81 -13.49,-45.11 -37.57,-48.56 -22.56,-3.23 -42.99,6.94 -50.33,28.49 -11.4,33.47 6.47,38.79 21.2,60.65l-27.4 182.85 -32.02 -2.85 -23.26 -93.72c20.73,-23.84 44.24,-31.81 33.95,-75.55 -16.47,-70.02 -127.44,-59.09 -122.34,21.22 2.43,38.24 29.51,48.98 60.53,58.87 6.67,22.57 22.48,76.59 21.54,97.79 -26.06,13.77 -51.17,-16.6 -89.93,-52.61 2.93,-35.17 15.37,-53.68 -16.89,-82.16 -23.98,-21.17 -61.99,-19.36 -84.36,2.88 -44.45,44.2 -7.73,130.13 79.29,98.28l73.87 61.9 -12.48 38.79 -93.59 9.51c-21.68,-26.07 -29.75,-51.99 -76.25,-43.7 -71.39,12.73 -63.37,125.19 13.4,123.45 49.45,-1.12 46.2,-32.27 65.84,-51.88l92.35 -8.97 16.96 35.57 -144.45 144.7c-25.02,-2.06 -41.24,-7.94 -58.54,14.45 -33.25,43.08 24.1,94.9 64.13,64.05 23.12,-17.82 17.13,-34.13 15.2,-58.4l146.02 -147.04 32.63 10.13 9.05 96.32c-27.61,20.51 -51.18,31.05 -43.48,75.53 12.21,70.56 124.49,62.79 123.81,-12.36 -0.42,-46.27 -26.98,-46.74 -53.74,-66.71 -1.6,-38.88 -24.04,-156.33 40.63,-72.67 12.43,16.09 25.13,26.63 36.37,44.05 -37.86,79.68 40.37,127.3 89.21,87.96 51.6,-41.55 20.76,-124 -65.54,-106.9 -15.47,-13.36 -57.07,-59.97 -63.66,-76.32l7.49 -10.59 52.1 14.02c9.66,28.83 14.71,51.52 53.73,47.16 30.83,-3.46 45.93,-34.8 35.71,-62.97 -9.35,-25.77 -41.36,-34.74 -65.19,-21.33 -17.83,10.03 -10,12.43 -32.15,5.75 -28.92,-8.71 -34.6,-9.09 -32.52,-25.89 14.79,-10.4 62.3,-19.98 81.95,-21.34z"/>
 </g>
</svg>
